# xmcd
#
# Track frame offsets:
#	180
#	13950
#	38550
#	67136
#	78975
#	96755
#	119169
#	137880
#	150266
#	163479
#
# Disc length: 2696 seconds
#
# Revision: 1
# Processed by: cddbd v1.4PL0 Copyright (c) Steve Scherf et al.
# Submitted via: audiograbber 1.81.03
#
DISCID=880a860a
DTITLE=The Front Porch Boys - Texas Tales
DYEAR=1996
DGENRE=Rock
TTITLE0=Ford in Overdrive
TTITLE1=A Hundred Years Ago
TTITLE2=Alexandria
TTITLE3=When My Ship Comes In
TTITLE4=Mr. Blues Man
TTITLE5=7th Street Jail
TTITLE6=East Texas Cabin
TTITLE7=Adair's
TTITLE8=Vegas
TTITLE9=Drinkin' Time Away
EXTD=
EXTT0=
EXTT1=
EXTT2=
EXTT3=
EXTT4=
EXTT5=
EXTT6=
EXTT7=
EXTT8=
EXTT9=
PLAYORDER=
